<svg width="54" height="34" viewBox="0 0 54 34" fill="none" xmlns="http://www.w3.org/2000/svg">
<g opacity="0.15" clip-path="url(#clip0_326_60722)">
<rect x="4.84009" y="20.2173" width="2.8125" height="8.5" transform="rotate(-15.8 4.84009 20.2173)" fill="#D9D9D9"/>
<rect x="7.54639" y="19.4514" width="5.625" height="2.83333" transform="rotate(-15.8 7.54639 19.4514)" fill="#D9D9D9"/>
<rect x="11.4158" y="12.4673" width="2.8125" height="17" transform="rotate(-15.8 11.4158 12.4673)" fill="#D9D9D9"/>
<rect x="17.9795" y="25.333" width="14.0625" height="2.83333" transform="rotate(-15.8 17.9795 25.333)" fill="#D9D9D9"/>
<rect x="14.1221" y="11.7014" width="14.0625" height="2.83333" transform="rotate(-15.8 14.1221 11.7014)" fill="#D9D9D9"/>
<rect x="25.7185" y="11.3647" width="2.8125" height="11.3333" transform="rotate(-15.8 25.7185 11.3647)" fill="#D9D9D9"/>
<rect x="20.3059" y="12.8962" width="5.625" height="11.3333" transform="rotate(-15.8 20.3059 12.8962)" fill="#D7D7D7"/>
<rect x="39.2498" y="7.53564" width="5.625" height="11.3333" transform="rotate(-15.8 39.2498 7.53564)" fill="#D7D7D7"/>
<rect x="14.8936" y="14.4277" width="5.625" height="11.3333" transform="rotate(-15.8 14.8936 14.4277)" fill="white"/>
<rect x="33.8372" y="9.06738" width="5.625" height="11.3333" transform="rotate(-15.8 33.8372 9.06738)" fill="white"/>
<rect x="29.1963" y="13.3252" width="2.8125" height="2.83333" transform="rotate(-15.8 29.1963 13.3252)" fill="#D9D9D9"/>
<rect x="30.3596" y="7.10669" width="2.8125" height="17" transform="rotate(-15.8 30.3596 7.10669)" fill="#D9D9D9"/>
<rect x="33.0657" y="6.34106" width="14.0625" height="2.83333" transform="rotate(-15.8 33.0657 6.34106)" fill="#D9D9D9"/>
<rect x="44.6621" y="6.00415" width="2.8125" height="11.3333" transform="rotate(-15.8 44.6621 6.00415)" fill="#D9D9D9"/>
<rect x="36.9231" y="19.9724" width="14.0625" height="2.83333" transform="rotate(-15.8 36.9231 19.9724)" fill="#D9D9D9"/>
</g>
<defs>
<clipPath id="clip0_326_60722">
<rect width="45" height="17" fill="white" transform="translate(3.29712 14.7646) rotate(-15.8)"/>
</clipPath>
</defs>
</svg>
